<svg xmlns="http://www.w3.org/2000/svg" viewBox="0 0 560 230">
  <defs>
    <linearGradient id="strip" x1="0" y1="0" x2="0" y2="1">
      <stop offset="0" stop-color="#f6ecd2"/>
      <stop offset="1" stop-color="#eee0bf"/>
    </linearGradient>
    <radialGradient id="snote" cx="0.5" cy="0.5" r="0.5">
      <stop offset="0" stop-color="#7a6544" stop-opacity="0.18"/>
      <stop offset="1" stop-color="#7a6544" stop-opacity="0"/>
    </radialGradient>
    <filter id="grain2">
      <feTurbulence type="fractalNoise" baseFrequency="0.95" numOctaves="2" result="n"/>
      <feColorMatrix in="n" type="matrix" values="0 0 0 0 0  0 0 0 0 0  0 0 0 0 0  0 0 0 0.05 0"/>
    </filter>
  </defs>

  <g transform="rotate(-0.4 280 115)">
    <!-- 纸条 -->
    <rect x="10" y="8" width="540" height="214" fill="url(#strip)" rx="2"/>

    <!-- 上下打孔边（电报抄报纸） -->
    <g fill="#ddd0ac">
      <circle cx="30" cy="15" r="4"/><circle cx="96" cy="15" r="4"/><circle cx="162" cy="15" r="4"/><circle cx="228" cy="15" r="4"/>
      <circle cx="294" cy="15" r="4"/><circle cx="360" cy="15" r="4"/><circle cx="426" cy="15" r="4"/><circle cx="492" cy="15" r="4"/>
      <circle cx="30" cy="215" r="4"/><circle cx="96" cy="215" r="4"/><circle cx="162" cy="215" r="4"/><circle cx="228" cy="215" r="4"/>
      <circle cx="294" cy="215" r="4"/><circle cx="360" cy="215" r="4"/><circle cx="426" cy="215" r="4"/><circle cx="492" cy="215" r="4"/>
    </g>

    <!-- 左上手写：抄件标识 -->
    <text x="30" y="58" font-family="'KaiTi','STKaiti',serif" font-size="14" fill="#3a2e1e" transform="rotate(1.2 30 58)">抄件 · 第23页之后</text>

    <!-- 右上蓝章：抄 -->
    <g>
      <circle cx="516" cy="48" r="18" fill="none" stroke="#4a6a9a" stroke-width="1.6" opacity="0.8"/>
      <circle cx="516" cy="48" r="14.5" fill="none" stroke="#4a6a9a" stroke-width="0.8" opacity="0.8"/>
      <text x="516" y="54" font-family="'SimSun','Songti SC',serif" font-size="16" fill="#4a6a9a" text-anchor="middle" opacity="0.85">抄</text>
    </g>

    <!-- 电码行：0827（点划间隔 6，字符间隔 24；点=8px 划=22px，y 中心 120） -->
    <g stroke="#2b2b2b" stroke-width="5" stroke-linecap="round">
      <!-- 0 = ───── -->
      <line x1="25" y1="120" x2="47" y2="120"/>
      <line x1="53" y1="120" x2="75" y2="120"/>
      <line x1="81" y1="120" x2="103" y2="120"/>
      <line x1="109" y1="120" x2="131" y2="120"/>
      <line x1="137" y1="120" x2="159" y2="120"/>
      <!-- 8 = ───·· -->
      <line x1="183" y1="120" x2="205" y2="120"/>
      <line x1="211" y1="120" x2="233" y2="120"/>
      <line x1="239" y1="120" x2="261" y2="120"/>
      <line x1="267" y1="120" x2="275" y2="120"/>
      <line x1="281" y1="120" x2="289" y2="120"/>
      <!-- 2 = ··─── -->
      <line x1="313" y1="120" x2="321" y2="120"/>
      <line x1="327" y1="120" x2="335" y2="120"/>
      <line x1="341" y1="120" x2="363" y2="120"/>
      <line x1="369" y1="120" x2="391" y2="120"/>
      <line x1="397" y1="120" x2="419" y2="120"/>
      <!-- 7 = ──··· -->
      <line x1="443" y1="120" x2="465" y2="120"/>
      <line x1="471" y1="120" x2="493" y2="120"/>
      <line x1="499" y1="120" x2="507" y2="120"/>
      <line x1="513" y1="120" x2="521" y2="120"/>
      <line x1="527" y1="120" x2="535" y2="120"/>
    </g>

    <!-- 字典注（右下） -->
    <text x="530" y="192" font-family="'SimSun','Songti SC',serif" font-size="12" fill="#5a5a5a" text-anchor="end" transform="rotate(0.8 530 192)">短是点，长是划。</text>

    <!-- 旧化 -->
    <circle cx="470" cy="150" r="34" fill="url(#snote)"/>
    <circle cx="70" cy="176" r="26" fill="url(#snote)"/>
    <rect x="10" y="8" width="540" height="214" filter="url(#grain2)"/>
  </g>
</svg>
