<svg xmlns="http://www.w3.org/2000/svg" width="512" height="512" viewBox="0 0 512 512">
<defs>
<radialGradient id="bg" cx="50%" cy="40%" r="75%">
<stop offset="0%" stop-color="#ecdfc0"/>
<stop offset="55%" stop-color="#dccba4"/>
<stop offset="100%" stop-color="#c6b086"/>
</radialGradient>
<filter id="stain" x="0%" y="0%" width="100%" height="100%">
<feTurbulence type="fractalNoise" baseFrequency="0.62" numOctaves="3" seed="7" result="n"/>
<feColorMatrix in="n" type="matrix" values="0 0 0 0 0.36  0 0 0 0 0.25  0 0 0 0 0.13  0 0 0 0.13 0" result="s"/>
<feComposite in="SourceGraphic" in2="s" operator="over"/>
</filter>
<filter id="grain" x="0%" y="0%" width="100%" height="100%">
<feTurbulence type="fractalNoise" baseFrequency="1.7" numOctaves="2" seed="12" result="n"/>
<feColorMatrix in="n" type="matrix" values="0 0 0 0 0  0 0 0 0 0  0 0 0 0 0  0 0 0 0.06 0"/>
</filter>
<filter id="vignette" x="0%" y="0%" width="100%" height="100%">
<feGaussianBlur in="SourceAlpha" stdDeviation="90" result="b"/>
<feOffset dx="0" dy="0"/>
<feComponentTransfer in="b"><feFuncA type="linear" slope="0.22"/></feComponentTransfer>
<feComposite in="SourceGraphic" operator="over"/>
</filter>
</defs>
<rect width="512" height="512" fill="url(#bg)"/>
<rect width="512" height="512" filter="url(#grain)"/>
<g stroke="#44301b" stroke-width="5.5" fill="none" stroke-linecap="round" stroke-linejoin="round" filter="url(#stain)">

<g transform="rotate(-20 256 256)">
<circle cx="256" cy="142" r="46"/>
<circle cx="256" cy="142" r="30" opacity="0.35"/>
<path d="M256 188 L256 330"/>
<path d="M256 258 L212 258 L212 286 L244 286"/>
<path d="M256 310 L206 310 L206 340 L244 340"/>
<path d="M256 222 L236 222 L236 244 L256 244"/>
</g>
</g>
<rect x="16" y="16" width="480" height="480" fill="none" stroke="#44301b" stroke-width="3" opacity="0.5"/>
<rect width="512" height="512" filter="url(#vignette)" opacity="0.55"/>
</svg>